# xmcd
# Track frame offsets:
# 182
# 17410
# 45372
# 62577
#
# Disc length: 1060 seconds
# Revision: 1
# Processed by: cddbd v1.5.2PL0 Copyright (c) Steve Scherf et al.
# Submitted via: VisiTrax 2.11.3.279 - For more info visit www.synapsa.com
#
DISCID=22042204
DTITLE=Shola Ama - Imagine
DYEAR=2000
DGENRE=R&B
TTITLE0=Imagine (Darkchild Mix)
TTITLE1=Imagine (D'influence Futurama Mix)
TTITLE2=Imagine (Spa Remix Radio Edit)
TTITLE3=Imagine (Curtis Lynch Jnr Wicked Remix) (feat Red Rat)
EXTD=Shola Ama
EXTT0=
EXTT1=
EXTT2=
EXTT3=
PLAYORDER=
